G04 #@! TF.FileFunction,Soldermask,Top*
%FSLAX46Y46*%
G04 Gerber Fmt 4.6, Leading zero omitted, Abs format (unit mm)*
G04 Created by KiCad (PCBNEW 4.0.1-2.fc23-product) date Sun 31 Jan 2016 08:26:32 PM PST*
%MOMM*%
G01*
G04 APERTURE LIST*
%ADD10C,0.100000*%
%ADD11R,0.960000X1.560000*%
%ADD12R,1.987200X1.987200*%
%ADD13O,1.987200X1.987200*%
%ADD14R,1.560000X0.960000*%
%ADD15R,1.784000X2.084000*%
%ADD16O,1.784000X2.084000*%
%ADD17R,0.860000X1.810000*%
%ADD18R,1.510000X1.260000*%
G04 APERTURE END LIST*
D10*
D11*
X109159000Y-102362000D03*
X111059000Y-102362000D03*
D12*
X174625000Y-79375000D03*
D13*
X177165000Y-79375000D03*
X174625000Y-81915000D03*
X177165000Y-81915000D03*
X174625000Y-84455000D03*
X177165000Y-84455000D03*
X174625000Y-86995000D03*
X177165000Y-86995000D03*
X174625000Y-89535000D03*
X177165000Y-89535000D03*
D12*
X164465000Y-75565000D03*
D13*
X167005000Y-75565000D03*
X164465000Y-78105000D03*
X167005000Y-78105000D03*
X164465000Y-80645000D03*
X167005000Y-80645000D03*
X164465000Y-83185000D03*
X167005000Y-83185000D03*
X164465000Y-85725000D03*
X167005000Y-85725000D03*
X164465000Y-88265000D03*
X167005000Y-88265000D03*
X164465000Y-90805000D03*
X167005000Y-90805000D03*
X164465000Y-93345000D03*
X167005000Y-93345000D03*
D14*
X120777000Y-93411000D03*
X120777000Y-95311000D03*
X118745000Y-93411000D03*
X118745000Y-95311000D03*
D11*
X109159000Y-100330000D03*
X111059000Y-100330000D03*
X109159000Y-98298000D03*
X111059000Y-98298000D03*
D14*
X116713000Y-93411000D03*
X116713000Y-95311000D03*
D12*
X116205000Y-109855000D03*
D13*
X116205000Y-107315000D03*
X118745000Y-109855000D03*
X118745000Y-107315000D03*
X121285000Y-109855000D03*
X121285000Y-107315000D03*
X123825000Y-109855000D03*
X123825000Y-107315000D03*
X126365000Y-109855000D03*
X126365000Y-107315000D03*
X128905000Y-109855000D03*
X128905000Y-107315000D03*
X131445000Y-109855000D03*
X131445000Y-107315000D03*
X133985000Y-109855000D03*
X133985000Y-107315000D03*
X136525000Y-109855000D03*
X136525000Y-107315000D03*
X139065000Y-109855000D03*
X139065000Y-107315000D03*
X141605000Y-109855000D03*
X141605000Y-107315000D03*
X144145000Y-109855000D03*
X144145000Y-107315000D03*
X146685000Y-109855000D03*
X146685000Y-107315000D03*
X149225000Y-109855000D03*
X149225000Y-107315000D03*
X151765000Y-109855000D03*
X151765000Y-107315000D03*
X154305000Y-109855000D03*
X154305000Y-107315000D03*
X156845000Y-109855000D03*
X156845000Y-107315000D03*
X159385000Y-109855000D03*
X159385000Y-107315000D03*
X161925000Y-109855000D03*
X161925000Y-107315000D03*
X164465000Y-109855000D03*
X164465000Y-107315000D03*
X167005000Y-109855000D03*
X167005000Y-107315000D03*
X169545000Y-109855000D03*
X169545000Y-107315000D03*
X172085000Y-109855000D03*
X172085000Y-107315000D03*
D12*
X116205000Y-61595000D03*
D13*
X116205000Y-59055000D03*
X118745000Y-61595000D03*
X118745000Y-59055000D03*
X121285000Y-61595000D03*
X121285000Y-59055000D03*
X123825000Y-61595000D03*
X123825000Y-59055000D03*
X126365000Y-61595000D03*
X126365000Y-59055000D03*
X128905000Y-61595000D03*
X128905000Y-59055000D03*
X131445000Y-61595000D03*
X131445000Y-59055000D03*
X133985000Y-61595000D03*
X133985000Y-59055000D03*
X136525000Y-61595000D03*
X136525000Y-59055000D03*
X139065000Y-61595000D03*
X139065000Y-59055000D03*
X141605000Y-61595000D03*
X141605000Y-59055000D03*
X144145000Y-61595000D03*
X144145000Y-59055000D03*
X146685000Y-61595000D03*
X146685000Y-59055000D03*
X149225000Y-61595000D03*
X149225000Y-59055000D03*
X151765000Y-61595000D03*
X151765000Y-59055000D03*
X154305000Y-61595000D03*
X154305000Y-59055000D03*
X156845000Y-61595000D03*
X156845000Y-59055000D03*
X159385000Y-61595000D03*
X159385000Y-59055000D03*
X161925000Y-61595000D03*
X161925000Y-59055000D03*
X164465000Y-61595000D03*
X164465000Y-59055000D03*
X167005000Y-61595000D03*
X167005000Y-59055000D03*
X169545000Y-61595000D03*
X169545000Y-59055000D03*
X172085000Y-61595000D03*
X172085000Y-59055000D03*
D12*
X111760000Y-92710000D03*
D13*
X109220000Y-92710000D03*
D15*
X101600000Y-104140000D03*
D16*
X101600000Y-96520000D03*
X104140000Y-104140000D03*
X104140000Y-96520000D03*
D17*
X116840000Y-103030000D03*
X118110000Y-103030000D03*
X119380000Y-103030000D03*
X120650000Y-103030000D03*
X120650000Y-97630000D03*
X119380000Y-97630000D03*
X118110000Y-97630000D03*
X116840000Y-97630000D03*
D18*
X114681000Y-97647000D03*
X114681000Y-95647000D03*
M02*
