G04 #@! TF.FileFunction,Legend,Bot*
%FSLAX46Y46*%
G04 Gerber Fmt 4.6, Leading zero omitted, Abs format (unit mm)*
G04 Created by KiCad (PCBNEW 4.0.1-2.fc23-product) date Sun 31 Jan 2016 08:26:32 PM PST*
%MOMM*%
G01*
G04 APERTURE LIST*
%ADD10C,0.100000*%
%ADD11C,0.200000*%
%ADD12C,0.300000*%
%ADD13C,0.150000*%
%ADD14R,1.987200X1.987200*%
%ADD15O,1.987200X1.987200*%
%ADD16R,1.560000X0.960000*%
%ADD17R,1.260000X1.510000*%
%ADD18R,3.760000X1.860000*%
%ADD19R,1.784000X2.084000*%
%ADD20O,1.784000X2.084000*%
%ADD21R,1.320000X0.910000*%
%ADD22R,1.760000X0.860000*%
%ADD23R,1.510000X1.260000*%
G04 APERTURE END LIST*
D10*
D11*
X160020000Y-104140000D02*
X142240000Y-104140000D01*
D12*
X159098571Y-103477143D02*
X158884285Y-103548571D01*
X158527142Y-103548571D01*
X158384285Y-103477143D01*
X158312856Y-103405714D01*
X158241428Y-103262857D01*
X158241428Y-103120000D01*
X158312856Y-102977143D01*
X158384285Y-102905714D01*
X158527142Y-102834286D01*
X158812856Y-102762857D01*
X158955714Y-102691429D01*
X159027142Y-102620000D01*
X159098571Y-102477143D01*
X159098571Y-102334286D01*
X159027142Y-102191429D01*
X158955714Y-102120000D01*
X158812856Y-102048571D01*
X158455714Y-102048571D01*
X158241428Y-102120000D01*
X157598571Y-103548571D02*
X157598571Y-102048571D01*
X157027143Y-102048571D01*
X156884285Y-102120000D01*
X156812857Y-102191429D01*
X156741428Y-102334286D01*
X156741428Y-102548571D01*
X156812857Y-102691429D01*
X156884285Y-102762857D01*
X157027143Y-102834286D01*
X157598571Y-102834286D01*
X156098571Y-103548571D02*
X156098571Y-102048571D01*
X154241428Y-103548571D02*
X154241428Y-102048571D01*
X154241428Y-102620000D02*
X154098571Y-102548571D01*
X153812857Y-102548571D01*
X153670000Y-102620000D01*
X153598571Y-102691429D01*
X153527142Y-102834286D01*
X153527142Y-103262857D01*
X153598571Y-103405714D01*
X153670000Y-103477143D01*
X153812857Y-103548571D01*
X154098571Y-103548571D01*
X154241428Y-103477143D01*
X152241428Y-102548571D02*
X152241428Y-103548571D01*
X152884285Y-102548571D02*
X152884285Y-103334286D01*
X152812857Y-103477143D01*
X152669999Y-103548571D01*
X152455714Y-103548571D01*
X152312857Y-103477143D01*
X152241428Y-103405714D01*
X151741428Y-102548571D02*
X151169999Y-102548571D01*
X151527142Y-103548571D02*
X151527142Y-102262857D01*
X151455714Y-102120000D01*
X151312856Y-102048571D01*
X151169999Y-102048571D01*
X150884285Y-102548571D02*
X150312856Y-102548571D01*
X150669999Y-103548571D02*
X150669999Y-102262857D01*
X150598571Y-102120000D01*
X150455713Y-102048571D01*
X150312856Y-102048571D01*
X149241428Y-103477143D02*
X149384285Y-103548571D01*
X149669999Y-103548571D01*
X149812856Y-103477143D01*
X149884285Y-103334286D01*
X149884285Y-102762857D01*
X149812856Y-102620000D01*
X149669999Y-102548571D01*
X149384285Y-102548571D01*
X149241428Y-102620000D01*
X149169999Y-102762857D01*
X149169999Y-102905714D01*
X149884285Y-103048571D01*
X148527142Y-103548571D02*
X148527142Y-102548571D01*
X148527142Y-102834286D02*
X148455714Y-102691429D01*
X148384285Y-102620000D01*
X148241428Y-102548571D01*
X148098571Y-102548571D01*
D11*
X142240000Y-88900000D02*
X160020000Y-88900000D01*
X142240000Y-104140000D02*
X142240000Y-88900000D01*
X160020000Y-88900000D02*
X160020000Y-104140000D01*
D12*
X158253571Y-86173571D02*
X157753571Y-87673571D01*
X157253571Y-86173571D01*
X155896428Y-87673571D02*
X156396428Y-86959286D01*
X156753571Y-87673571D02*
X156753571Y-86173571D01*
X156182143Y-86173571D01*
X156039285Y-86245000D01*
X155967857Y-86316429D01*
X155896428Y-86459286D01*
X155896428Y-86673571D01*
X155967857Y-86816429D01*
X156039285Y-86887857D01*
X156182143Y-86959286D01*
X156753571Y-86959286D01*
X155253571Y-86887857D02*
X154753571Y-86887857D01*
X154539285Y-87673571D02*
X155253571Y-87673571D01*
X155253571Y-86173571D01*
X154539285Y-86173571D01*
X153110714Y-86245000D02*
X153253571Y-86173571D01*
X153467857Y-86173571D01*
X153682142Y-86245000D01*
X153825000Y-86387857D01*
X153896428Y-86530714D01*
X153967857Y-86816429D01*
X153967857Y-87030714D01*
X153896428Y-87316429D01*
X153825000Y-87459286D01*
X153682142Y-87602143D01*
X153467857Y-87673571D01*
X153325000Y-87673571D01*
X153110714Y-87602143D01*
X153039285Y-87530714D01*
X153039285Y-87030714D01*
X153325000Y-87030714D01*
D11*
X142240000Y-73660000D02*
X142240000Y-88900000D01*
X160020000Y-73660000D02*
X142240000Y-73660000D01*
X160020000Y-88900000D02*
X160020000Y-73660000D01*
X142240000Y-88900000D02*
X160020000Y-88900000D01*
D13*
X170547000Y-81245000D02*
X170547000Y-80045000D01*
X168797000Y-80045000D02*
X168797000Y-81245000D01*
X172706000Y-81245000D02*
X172706000Y-80045000D01*
X170956000Y-80045000D02*
X170956000Y-81245000D01*
X149995000Y-76620000D02*
X150995000Y-76620000D01*
X150995000Y-78320000D02*
X149995000Y-78320000D01*
X153695400Y-83007200D02*
X153695400Y-79552800D01*
X157454600Y-83007200D02*
X157454600Y-79552800D01*
X150295000Y-82980000D02*
G75*
G03X150295000Y-82980000I-100000J0D01*
G01*
X150745000Y-82730000D02*
X150245000Y-82730000D01*
X150745000Y-79830000D02*
X150745000Y-82730000D01*
X150245000Y-79830000D02*
X150745000Y-79830000D01*
X150245000Y-82730000D02*
X150245000Y-79830000D01*
X153205000Y-92070000D02*
X153205000Y-92185000D01*
X149055000Y-92070000D02*
X149055000Y-92185000D01*
X149055000Y-100970000D02*
X149055000Y-100855000D01*
X153205000Y-100970000D02*
X153205000Y-100855000D01*
X153205000Y-92070000D02*
X149055000Y-92070000D01*
X153205000Y-100970000D02*
X149055000Y-100970000D01*
X153205000Y-92185000D02*
X154580000Y-92185000D01*
X146900000Y-90670000D02*
X146900000Y-91670000D01*
X145200000Y-91670000D02*
X145200000Y-90670000D01*
X146780000Y-84240000D02*
X147780000Y-84240000D01*
X147780000Y-85940000D02*
X146780000Y-85940000D01*
X170124381Y-77430334D02*
X169648190Y-77097000D01*
X170124381Y-76858905D02*
X169124381Y-76858905D01*
X169124381Y-77239858D01*
X169172000Y-77335096D01*
X169219619Y-77382715D01*
X169314857Y-77430334D01*
X169457714Y-77430334D01*
X169552952Y-77382715D01*
X169600571Y-77335096D01*
X169648190Y-77239858D01*
X169648190Y-76858905D01*
X169124381Y-78287477D02*
X169124381Y-78097000D01*
X169172000Y-78001762D01*
X169219619Y-77954143D01*
X169362476Y-77858905D01*
X169552952Y-77811286D01*
X169933905Y-77811286D01*
X170029143Y-77858905D01*
X170076762Y-77906524D01*
X170124381Y-78001762D01*
X170124381Y-78192239D01*
X170076762Y-78287477D01*
X170029143Y-78335096D01*
X169933905Y-78382715D01*
X169695810Y-78382715D01*
X169600571Y-78335096D01*
X169552952Y-78287477D01*
X169505333Y-78192239D01*
X169505333Y-78001762D01*
X169552952Y-77906524D01*
X169600571Y-77858905D01*
X169695810Y-77811286D01*
X172283381Y-77430334D02*
X171807190Y-77097000D01*
X172283381Y-76858905D02*
X171283381Y-76858905D01*
X171283381Y-77239858D01*
X171331000Y-77335096D01*
X171378619Y-77382715D01*
X171473857Y-77430334D01*
X171616714Y-77430334D01*
X171711952Y-77382715D01*
X171759571Y-77335096D01*
X171807190Y-77239858D01*
X171807190Y-76858905D01*
X171283381Y-77763667D02*
X171283381Y-78430334D01*
X172283381Y-78001762D01*
X150661666Y-75727143D02*
X150709285Y-75774762D01*
X150852142Y-75822381D01*
X150947380Y-75822381D01*
X151090238Y-75774762D01*
X151185476Y-75679524D01*
X151233095Y-75584286D01*
X151280714Y-75393810D01*
X151280714Y-75250952D01*
X151233095Y-75060476D01*
X151185476Y-74965238D01*
X151090238Y-74870000D01*
X150947380Y-74822381D01*
X150852142Y-74822381D01*
X150709285Y-74870000D01*
X150661666Y-74917619D01*
X150280714Y-74917619D02*
X150233095Y-74870000D01*
X150137857Y-74822381D01*
X149899761Y-74822381D01*
X149804523Y-74870000D01*
X149756904Y-74917619D01*
X149709285Y-75012857D01*
X149709285Y-75108095D01*
X149756904Y-75250952D01*
X150328333Y-75822381D01*
X149709285Y-75822381D01*
X159202381Y-81113334D02*
X159202381Y-80637143D01*
X158202381Y-80637143D01*
X159202381Y-81970477D02*
X159202381Y-81399048D01*
X159202381Y-81684762D02*
X158202381Y-81684762D01*
X158345238Y-81589524D01*
X158440476Y-81494286D01*
X158488095Y-81399048D01*
X151891905Y-83272381D02*
X151891905Y-84081905D01*
X151844286Y-84177143D01*
X151796667Y-84224762D01*
X151701429Y-84272381D01*
X151510952Y-84272381D01*
X151415714Y-84224762D01*
X151368095Y-84177143D01*
X151320476Y-84081905D01*
X151320476Y-83272381D01*
X150320476Y-84272381D02*
X150891905Y-84272381D01*
X150606191Y-84272381D02*
X150606191Y-83272381D01*
X150701429Y-83415238D01*
X150796667Y-83510476D01*
X150891905Y-83558095D01*
X151891905Y-90597381D02*
X151891905Y-91406905D01*
X151844286Y-91502143D01*
X151796667Y-91549762D01*
X151701429Y-91597381D01*
X151510952Y-91597381D01*
X151415714Y-91549762D01*
X151368095Y-91502143D01*
X151320476Y-91406905D01*
X151320476Y-90597381D01*
X150891905Y-90692619D02*
X150844286Y-90645000D01*
X150749048Y-90597381D01*
X150510952Y-90597381D01*
X150415714Y-90645000D01*
X150368095Y-90692619D01*
X150320476Y-90787857D01*
X150320476Y-90883095D01*
X150368095Y-91025952D01*
X150939524Y-91597381D01*
X150320476Y-91597381D01*
X148507143Y-91003334D02*
X148554762Y-90955715D01*
X148602381Y-90812858D01*
X148602381Y-90717620D01*
X148554762Y-90574762D01*
X148459524Y-90479524D01*
X148364286Y-90431905D01*
X148173810Y-90384286D01*
X148030952Y-90384286D01*
X147840476Y-90431905D01*
X147745238Y-90479524D01*
X147650000Y-90574762D01*
X147602381Y-90717620D01*
X147602381Y-90812858D01*
X147650000Y-90955715D01*
X147697619Y-91003334D01*
X147935714Y-91860477D02*
X148602381Y-91860477D01*
X147554762Y-91622381D02*
X148269048Y-91384286D01*
X148269048Y-92003334D01*
X147446666Y-83347143D02*
X147494285Y-83394762D01*
X147637142Y-83442381D01*
X147732380Y-83442381D01*
X147875238Y-83394762D01*
X147970476Y-83299524D01*
X148018095Y-83204286D01*
X148065714Y-83013810D01*
X148065714Y-82870952D01*
X148018095Y-82680476D01*
X147970476Y-82585238D01*
X147875238Y-82490000D01*
X147732380Y-82442381D01*
X147637142Y-82442381D01*
X147494285Y-82490000D01*
X147446666Y-82537619D01*
X146494285Y-83442381D02*
X147065714Y-83442381D01*
X146780000Y-83442381D02*
X146780000Y-82442381D01*
X146875238Y-82585238D01*
X146970476Y-82680476D01*
X147065714Y-82728095D01*
%LPC*%
D14*
X174625000Y-79375000D03*
D15*
X177165000Y-79375000D03*
X174625000Y-81915000D03*
X177165000Y-81915000D03*
X174625000Y-84455000D03*
X177165000Y-84455000D03*
X174625000Y-86995000D03*
X177165000Y-86995000D03*
X174625000Y-89535000D03*
X177165000Y-89535000D03*
D14*
X164465000Y-75565000D03*
D15*
X167005000Y-75565000D03*
X164465000Y-78105000D03*
X167005000Y-78105000D03*
X164465000Y-80645000D03*
X167005000Y-80645000D03*
X164465000Y-83185000D03*
X167005000Y-83185000D03*
X164465000Y-85725000D03*
X167005000Y-85725000D03*
X164465000Y-88265000D03*
X167005000Y-88265000D03*
X164465000Y-90805000D03*
X167005000Y-90805000D03*
X164465000Y-93345000D03*
X167005000Y-93345000D03*
D16*
X169672000Y-79695000D03*
X169672000Y-81595000D03*
X171831000Y-79695000D03*
X171831000Y-81595000D03*
D17*
X151495000Y-77470000D03*
X149495000Y-77470000D03*
D18*
X155575000Y-83718400D03*
X155575000Y-78841600D03*
D14*
X116205000Y-109855000D03*
D15*
X116205000Y-107315000D03*
X118745000Y-109855000D03*
X118745000Y-107315000D03*
X121285000Y-109855000D03*
X121285000Y-107315000D03*
X123825000Y-109855000D03*
X123825000Y-107315000D03*
X126365000Y-109855000D03*
X126365000Y-107315000D03*
X128905000Y-109855000D03*
X128905000Y-107315000D03*
X131445000Y-109855000D03*
X131445000Y-107315000D03*
X133985000Y-109855000D03*
X133985000Y-107315000D03*
X136525000Y-109855000D03*
X136525000Y-107315000D03*
X139065000Y-109855000D03*
X139065000Y-107315000D03*
X141605000Y-109855000D03*
X141605000Y-107315000D03*
X144145000Y-109855000D03*
X144145000Y-107315000D03*
X146685000Y-109855000D03*
X146685000Y-107315000D03*
X149225000Y-109855000D03*
X149225000Y-107315000D03*
X151765000Y-109855000D03*
X151765000Y-107315000D03*
X154305000Y-109855000D03*
X154305000Y-107315000D03*
X156845000Y-109855000D03*
X156845000Y-107315000D03*
X159385000Y-109855000D03*
X159385000Y-107315000D03*
X161925000Y-109855000D03*
X161925000Y-107315000D03*
X164465000Y-109855000D03*
X164465000Y-107315000D03*
X167005000Y-109855000D03*
X167005000Y-107315000D03*
X169545000Y-109855000D03*
X169545000Y-107315000D03*
X172085000Y-109855000D03*
X172085000Y-107315000D03*
D14*
X116205000Y-61595000D03*
D15*
X116205000Y-59055000D03*
X118745000Y-61595000D03*
X118745000Y-59055000D03*
X121285000Y-61595000D03*
X121285000Y-59055000D03*
X123825000Y-61595000D03*
X123825000Y-59055000D03*
X126365000Y-61595000D03*
X126365000Y-59055000D03*
X128905000Y-61595000D03*
X128905000Y-59055000D03*
X131445000Y-61595000D03*
X131445000Y-59055000D03*
X133985000Y-61595000D03*
X133985000Y-59055000D03*
X136525000Y-61595000D03*
X136525000Y-59055000D03*
X139065000Y-61595000D03*
X139065000Y-59055000D03*
X141605000Y-61595000D03*
X141605000Y-59055000D03*
X144145000Y-61595000D03*
X144145000Y-59055000D03*
X146685000Y-61595000D03*
X146685000Y-59055000D03*
X149225000Y-61595000D03*
X149225000Y-59055000D03*
X151765000Y-61595000D03*
X151765000Y-59055000D03*
X154305000Y-61595000D03*
X154305000Y-59055000D03*
X156845000Y-61595000D03*
X156845000Y-59055000D03*
X159385000Y-61595000D03*
X159385000Y-59055000D03*
X161925000Y-61595000D03*
X161925000Y-59055000D03*
X164465000Y-61595000D03*
X164465000Y-59055000D03*
X167005000Y-61595000D03*
X167005000Y-59055000D03*
X169545000Y-61595000D03*
X169545000Y-59055000D03*
X172085000Y-61595000D03*
X172085000Y-59055000D03*
D14*
X111760000Y-92710000D03*
D15*
X109220000Y-92710000D03*
D19*
X101600000Y-104140000D03*
D20*
X101600000Y-96520000D03*
X104140000Y-104140000D03*
X104140000Y-96520000D03*
D21*
X149395000Y-82230000D03*
X149395000Y-81280000D03*
X149395000Y-80330000D03*
X151595000Y-80330000D03*
X151595000Y-82230000D03*
D22*
X153830000Y-92710000D03*
X153830000Y-93980000D03*
X153830000Y-95250000D03*
X153830000Y-96520000D03*
X153830000Y-97790000D03*
X153830000Y-99060000D03*
X153830000Y-100330000D03*
X148430000Y-100330000D03*
X148430000Y-99060000D03*
X148430000Y-97790000D03*
X148430000Y-96520000D03*
X148430000Y-95250000D03*
X148430000Y-93980000D03*
X148430000Y-92710000D03*
D23*
X146050000Y-92170000D03*
X146050000Y-90170000D03*
D17*
X148280000Y-85090000D03*
X146280000Y-85090000D03*
M02*
