G04 #@! TF.FileFunction,Soldermask,Bot*
%FSLAX46Y46*%
G04 Gerber Fmt 4.6, Leading zero omitted, Abs format (unit mm)*
G04 Created by KiCad (PCBNEW 4.0.1-2.fc23-product) date Sun 31 Jan 2016 08:26:32 PM PST*
%MOMM*%
G01*
G04 APERTURE LIST*
%ADD10C,0.100000*%
%ADD11R,1.987200X1.987200*%
%ADD12O,1.987200X1.987200*%
%ADD13R,1.560000X0.960000*%
%ADD14R,1.260000X1.510000*%
%ADD15R,3.760000X1.860000*%
%ADD16R,1.784000X2.084000*%
%ADD17O,1.784000X2.084000*%
%ADD18R,1.320000X0.910000*%
%ADD19R,1.760000X0.860000*%
%ADD20R,1.510000X1.260000*%
G04 APERTURE END LIST*
D10*
D11*
X174625000Y-79375000D03*
D12*
X177165000Y-79375000D03*
X174625000Y-81915000D03*
X177165000Y-81915000D03*
X174625000Y-84455000D03*
X177165000Y-84455000D03*
X174625000Y-86995000D03*
X177165000Y-86995000D03*
X174625000Y-89535000D03*
X177165000Y-89535000D03*
D11*
X164465000Y-75565000D03*
D12*
X167005000Y-75565000D03*
X164465000Y-78105000D03*
X167005000Y-78105000D03*
X164465000Y-80645000D03*
X167005000Y-80645000D03*
X164465000Y-83185000D03*
X167005000Y-83185000D03*
X164465000Y-85725000D03*
X167005000Y-85725000D03*
X164465000Y-88265000D03*
X167005000Y-88265000D03*
X164465000Y-90805000D03*
X167005000Y-90805000D03*
X164465000Y-93345000D03*
X167005000Y-93345000D03*
D13*
X169672000Y-79695000D03*
X169672000Y-81595000D03*
X171831000Y-79695000D03*
X171831000Y-81595000D03*
D14*
X151495000Y-77470000D03*
X149495000Y-77470000D03*
D15*
X155575000Y-83718400D03*
X155575000Y-78841600D03*
D11*
X116205000Y-109855000D03*
D12*
X116205000Y-107315000D03*
X118745000Y-109855000D03*
X118745000Y-107315000D03*
X121285000Y-109855000D03*
X121285000Y-107315000D03*
X123825000Y-109855000D03*
X123825000Y-107315000D03*
X126365000Y-109855000D03*
X126365000Y-107315000D03*
X128905000Y-109855000D03*
X128905000Y-107315000D03*
X131445000Y-109855000D03*
X131445000Y-107315000D03*
X133985000Y-109855000D03*
X133985000Y-107315000D03*
X136525000Y-109855000D03*
X136525000Y-107315000D03*
X139065000Y-109855000D03*
X139065000Y-107315000D03*
X141605000Y-109855000D03*
X141605000Y-107315000D03*
X144145000Y-109855000D03*
X144145000Y-107315000D03*
X146685000Y-109855000D03*
X146685000Y-107315000D03*
X149225000Y-109855000D03*
X149225000Y-107315000D03*
X151765000Y-109855000D03*
X151765000Y-107315000D03*
X154305000Y-109855000D03*
X154305000Y-107315000D03*
X156845000Y-109855000D03*
X156845000Y-107315000D03*
X159385000Y-109855000D03*
X159385000Y-107315000D03*
X161925000Y-109855000D03*
X161925000Y-107315000D03*
X164465000Y-109855000D03*
X164465000Y-107315000D03*
X167005000Y-109855000D03*
X167005000Y-107315000D03*
X169545000Y-109855000D03*
X169545000Y-107315000D03*
X172085000Y-109855000D03*
X172085000Y-107315000D03*
D11*
X116205000Y-61595000D03*
D12*
X116205000Y-59055000D03*
X118745000Y-61595000D03*
X118745000Y-59055000D03*
X121285000Y-61595000D03*
X121285000Y-59055000D03*
X123825000Y-61595000D03*
X123825000Y-59055000D03*
X126365000Y-61595000D03*
X126365000Y-59055000D03*
X128905000Y-61595000D03*
X128905000Y-59055000D03*
X131445000Y-61595000D03*
X131445000Y-59055000D03*
X133985000Y-61595000D03*
X133985000Y-59055000D03*
X136525000Y-61595000D03*
X136525000Y-59055000D03*
X139065000Y-61595000D03*
X139065000Y-59055000D03*
X141605000Y-61595000D03*
X141605000Y-59055000D03*
X144145000Y-61595000D03*
X144145000Y-59055000D03*
X146685000Y-61595000D03*
X146685000Y-59055000D03*
X149225000Y-61595000D03*
X149225000Y-59055000D03*
X151765000Y-61595000D03*
X151765000Y-59055000D03*
X154305000Y-61595000D03*
X154305000Y-59055000D03*
X156845000Y-61595000D03*
X156845000Y-59055000D03*
X159385000Y-61595000D03*
X159385000Y-59055000D03*
X161925000Y-61595000D03*
X161925000Y-59055000D03*
X164465000Y-61595000D03*
X164465000Y-59055000D03*
X167005000Y-61595000D03*
X167005000Y-59055000D03*
X169545000Y-61595000D03*
X169545000Y-59055000D03*
X172085000Y-61595000D03*
X172085000Y-59055000D03*
D11*
X111760000Y-92710000D03*
D12*
X109220000Y-92710000D03*
D16*
X101600000Y-104140000D03*
D17*
X101600000Y-96520000D03*
X104140000Y-104140000D03*
X104140000Y-96520000D03*
D18*
X149395000Y-82230000D03*
X149395000Y-81280000D03*
X149395000Y-80330000D03*
X151595000Y-80330000D03*
X151595000Y-82230000D03*
D19*
X153830000Y-92710000D03*
X153830000Y-93980000D03*
X153830000Y-95250000D03*
X153830000Y-96520000D03*
X153830000Y-97790000D03*
X153830000Y-99060000D03*
X153830000Y-100330000D03*
X148430000Y-100330000D03*
X148430000Y-99060000D03*
X148430000Y-97790000D03*
X148430000Y-96520000D03*
X148430000Y-95250000D03*
X148430000Y-93980000D03*
X148430000Y-92710000D03*
D20*
X146050000Y-92170000D03*
X146050000Y-90170000D03*
D14*
X148280000Y-85090000D03*
X146280000Y-85090000D03*
M02*
