M48
METRIC,TZ
T1C0.400
T2C0.762
T3C1.016
T4C3.000
%
G90
G05
T1
X109220Y-66040
X113663Y-101346
X116713Y-95311
X119380Y-66040
X119380Y-76200
X119380Y-86360
X121920Y-102870
X123190Y-95250
X128270Y-96520
X129540Y-66040
X129540Y-76200
X129540Y-76200
X129540Y-86360
X129540Y-104140
X139700Y-66040
X139700Y-76200
X139700Y-86360
X139700Y-96520
X139700Y-104140
X147320Y-104775
X149225Y-105410
X149395Y-81280
X149855Y-88268
X149860Y-66040
X149860Y-76200
X149860Y-96520
X149860Y-96520
X150495Y-99060
X150495Y-105410
X151130Y-98425
X151765Y-105410
X153035Y-105410
X154940Y-104775
X155575Y-94615
X156210Y-93980
X158623Y-80264
X158623Y-82296
X159385Y-81228
X160020Y-66040
X161290Y-83820
X161290Y-93980
X161290Y-104140
X170180Y-66040
X170180Y-83820
X170180Y-88900
X170180Y-96520
X170180Y-104140
X180340Y-66040
X180340Y-76200
X180340Y-86360
X180340Y-96520
X180340Y-104140
T2
X101600Y-96520
X101600Y-104140
X104140Y-96520
X104140Y-104140
T3
X109220Y-92710
X111760Y-92710
X116205Y-59055
X116205Y-61595
X116205Y-107315
X116205Y-109855
X118745Y-59055
X118745Y-61595
X118745Y-107315
X118745Y-109855
X121285Y-59055
X121285Y-61595
X121285Y-107315
X121285Y-109855
X123825Y-59055
X123825Y-61595
X123825Y-107315
X123825Y-109855
X126365Y-59055
X126365Y-61595
X126365Y-107315
X126365Y-109855
X128905Y-59055
X128905Y-61595
X128905Y-107315
X128905Y-109855
X131445Y-59055
X131445Y-61595
X131445Y-107315
X131445Y-109855
X133985Y-59055
X133985Y-61595
X133985Y-107315
X133985Y-109855
X136525Y-59055
X136525Y-61595
X136525Y-107315
X136525Y-109855
X139065Y-59055
X139065Y-61595
X139065Y-107315
X139065Y-109855
X141605Y-59055
X141605Y-61595
X141605Y-107315
X141605Y-109855
X144145Y-59055
X144145Y-61595
X144145Y-107315
X144145Y-109855
X146685Y-59055
X146685Y-61595
X146685Y-107315
X146685Y-109855
X149225Y-59055
X149225Y-61595
X149225Y-107315
X149225Y-109855
X151765Y-59055
X151765Y-61595
X151765Y-107315
X151765Y-109855
X154305Y-59055
X154305Y-61595
X154305Y-107315
X154305Y-109855
X156845Y-59055
X156845Y-61595
X156845Y-107315
X156845Y-109855
X159385Y-59055
X159385Y-61595
X159385Y-107315
X159385Y-109855
X161925Y-59055
X161925Y-61595
X161925Y-107315
X161925Y-109855
X164465Y-59055
X164465Y-61595
X164465Y-75565
X164465Y-78105
X164465Y-80645
X164465Y-83185
X164465Y-85725
X164465Y-88265
X164465Y-90805
X164465Y-93345
X164465Y-107315
X164465Y-109855
X167005Y-59055
X167005Y-61595
X167005Y-75565
X167005Y-78105
X167005Y-80645
X167005Y-83185
X167005Y-85725
X167005Y-88265
X167005Y-90805
X167005Y-93345
X167005Y-107315
X167005Y-109855
X169545Y-59055
X169545Y-61595
X169545Y-107315
X169545Y-109855
X172085Y-59055
X172085Y-61595
X172085Y-107315
X172085Y-109855
X174625Y-79375
X174625Y-81915
X174625Y-84455
X174625Y-86995
X174625Y-89535
X177165Y-79375
X177165Y-81915
X177165Y-84455
X177165Y-86995
X177165Y-89535
T4
X111125Y-60325
X111125Y-108585
X177165Y-63500
X177165Y-105410
T0
M30
